# xmcd
#
# Track frame offsets:
#	150
#	17010
#	29663
#	43588
#	57899
#	73589
#	86323
#	103780
#	115496
#	127340
#	137197
#	158962
#	173519
#	191104
#	211082
#	228026
#	243022
#	259116
#
# Disc length: 3689 seconds
#
# Revision: 1
# Processed by: cddbd v1.5.2PL0 Copyright (c) Steve Scherf et al.
# Submitted via: EZCDAudioConverter 9.0.0.1
#
DISCID=f70e6712
DTITLE=Various Artist - Gentle On My Mind CD 4
DYEAR=2006
DGENRE=Country
TTITLE0=Patsy Cline - Faded Love
TTITLE1=Hank Williams - I'm So Lonesome I Could Cry
TTITLE2=Jim Ed Brown and Helen Cornelius - You Don't Bring Me Flowers
TTITLE3=Earl Thomas Conley - Holding Her And Loving You
TTITLE4=Neal McCoy - If The Wall Had Ears
TTITLE5=LeAnn Rimes - Blue
TTITLE6=John Anderson - When It Comes To You
TTITLE7=Marty Robbins - Among My Souvenirs
TTITLE8=Don Gibson - I Can't Stop Loving You
TTITLE9=Jim Reeves and Deborah Allen - Oh, How I Miss You Tonight
TTITLE10=Kenny Rogers - Have I Told You Lately That I Love You
TTITLE11=Glen Campbell - And I Love You So
TTITLE12=John Berry - Your Love Amazes Me
TTITLE13=Rodney Crowell - After All This Time
TTITLE14=Kathy Mattea - Where've You Been
TTITLE15=Diamond Rio - Meet In The Middle
TTITLE16=Alabama - Forever's As Far As I'll Go
TTITLE17=Collin Raye - Love, Me
EXTD=
EXTT0=
EXTT1=
EXTT2=
EXTT3=
EXTT4=
EXTT5=
EXTT6=
EXTT7=
EXTT8=
EXTT9=
EXTT10=
EXTT11=
EXTT12=
EXTT13=
EXTT14=
EXTT15=
EXTT16=
EXTT17=
PLAYORDER=
